<?xml version="1.0"?>
<svg xmlns="http://www.w3.org/2000/svg" height="512px" viewBox="0 1 511.9999 511.9999" width="512px" class=""><g><path d="m413.007812 242.152344c-1.351562-1.351563-3.183593-2.113282-5.097656-2.113282-1.914062 0-3.746094.761719-5.097656 2.113282l-22.128906 22.128906-.007813-.007812-25.082031-25.085938-.046875-.03125 65.941406-65.945312c3.289063-3.238282 5.140625-7.660157 5.140625-12.277344 0-4.617188-1.851562-9.039063-5.140625-12.28125l-57.359375-57.359375c-6.789062-6.769531-17.773437-6.769531-24.558594 0l-65.9375 65.933593-25.902343-25.90625-.011719-.003906 22.128906-22.128906c2.816406-2.816406 2.816406-7.382812 0-10.199219l-96.878906-96.875c-2.816406-2.816406-7.382812-2.816406-10.199219 0l-61.1875 61.183594c-1.351562 1.355469-2.113281 3.1875-2.113281 5.101563 0 1.910156.761719 3.746093 2.113281 5.097656l96.882813 96.878906c1.351562 1.351562 3.1875 2.113281 5.097656 2.113281 1.914062 0 3.746094-.761719 5.101562-2.113281l26.789063-26.792969.007813.011719 25.90625 25.902344-41.378907 41.378906c40.421875 10.082031 71.828125 41.890625 81.398438 82.441406l41.902343-41.90625.03125.046875 25.085938 25.085938.011719.003906-26.792969 26.792969c-1.351562 1.351562-2.113281 3.1875-2.113281 5.101562 0 1.910156.761719 3.746094 2.113281 5.097656l96.878906 96.878907c2.816406 2.816406 7.382813 2.816406 10.199219 0l61.183594-61.1875c2.816406-2.816407 2.816406-7.382813 0-10.199219zm0 0" data-original="#000000" class="active-path" data-old_color="#000000" fill="#FFFFFF"/><path d="m259.472656 252.527344c-14.660156-14.710938-33.808594-24.113282-54.414062-26.726563-3.910156-.519531-7.851563-.78125-11.800782-.78125-22.128906-.011719-43.550781 7.792969-60.484374 22.042969-1.5625 1.316406-2.503907 3.226562-2.605469 5.265625-.097657 2.042969.65625 4.03125 2.085937 5.496094l121.921875 121.921875c1.464844 1.429687 3.453125 2.183594 5.496094 2.085937 2.039063-.101562 3.949219-1.042969 5.265625-2.605469 14.25-16.933593 22.054688-38.355468 22.042969-60.484374.015625-3.480469-.1875-6.957032-.609375-10.414063-2.328125-21.125-11.820313-40.820313-26.898438-55.800781zm0 0" data-original="#000000" class="active-path" data-old_color="#000000" fill="#FFFFFF"/><path d="m190.914062 494.644531c-95.808593-.105469-173.453124-77.75-173.558593-173.558593 0-4.792969-3.886719-8.679688-8.675781-8.679688-4.792969 0-8.679688 3.886719-8.679688 8.679688.117188 105.390624 85.523438 190.796874 190.914062 190.914062 4.792969 0 8.679688-3.886719 8.679688-8.679688 0-4.792968-3.886719-8.675781-8.679688-8.675781zm0 0" data-original="#000000" class="active-path" data-old_color="#000000" fill="#FFFFFF"/><path d="m190.914062 442.574219c-67.066406-.074219-121.414062-54.421875-121.492187-121.488281 0-4.792969-3.882813-8.679688-8.675781-8.679688-4.792969 0-8.679688 3.886719-8.679688 8.679688.089844 76.644531 62.203125 138.757812 138.847656 138.847656 4.792969 0 8.679688-3.886719 8.679688-8.679688 0-4.792968-3.886719-8.679687-8.679688-8.679687zm0 0" data-original="#000000" class="active-path" data-old_color="#000000" fill="#FFFFFF"/><path d="m190.914062 390.507812c-38.320312-.042968-69.378906-31.101562-69.421874-69.421874 0-4.792969-3.886719-8.679688-8.679688-8.679688s-8.675781 3.886719-8.675781 8.679688c.054687 47.902343 38.875 86.722656 86.777343 86.777343 4.792969 0 8.679688-3.882812 8.679688-8.675781s-3.886719-8.679688-8.679688-8.679688zm0 0" data-original="#000000" class="active-path" data-old_color="#000000" fill="#FFFFFF"/></g> </svg>
